<svg xmlns="http://www.w3.org/2000/svg" viewBox="0 0 1200 372" width="1200" height="372" role="img" aria-labelledby="t d"><title id="t">Replay</title><desc id="d">A scrubber slides along a CPU timeline. The thread tiles below freeze to the state recorded at each position.</desc><defs><linearGradient id="bg" x1="0" y1="0" x2="1" y2="1"><stop offset="0" stop-color="#0a0f1f"/><stop offset="1" stop-color="#121c3b"/></linearGradient><pattern id="dots" width="24" height="24" patternUnits="userSpaceOnUse"><circle cx="2" cy="2" r="1" fill="#7f9bff" fill-opacity="0.12"/></pattern><clipPath id="round"><rect width="1200" height="372" rx="20"/></clipPath></defs><style>text{font-family:Inter, "Segoe UI", -apple-system, Helvetica, Arial, sans-serif;fill:#dbe4ff} .t{font-size:15px;font-weight:700;letter-spacing:1.6px;fill:#9db0d6} .m{font-family:ui-monospace, SFMono-Regular, Menlo, Consolas, monospace}</style><g clip-path="url(#round)"><rect width="1200" height="372" fill="url(#bg)"/><rect width="1200" height="372" fill="url(#dots)"/>
<path d="M60 170 L60 133.5 L70 128.4 L80 119.7 L90 123.1 L100 119.8 L110 116.4 L120 120.6 L130 114.9 L140 112.9 L150 111.1 L160 122.3 L170 121.1 L180 126.5 L190 119.0 L200 123.9 L210 136.4 L220 125.1 L230 125.3 L240 125.2 L250 115.3 L260 107.1 L270 95.8 L280 83.5 L290 97.3 L300 111.0 L310 126.9 L320 142.1 L330 141.8 L340 143.2 L350 135.7 L360 137.4 L370 132.3 L380 130.7 L390 124.9 L400 124.5 L410 124.2 L420 111.3 L430 109.5 L440 110.5 L450 111.8 L460 117.7 L470 119.8 L480 120.5 L490 125.8 L500 118.4 L510 126.8 L520 123.8 L530 134.0 L540 129.3 L550 134.4 L560 149.8 L570 149.6 L580 141.8 L590 149.7 L600 143.0 L610 150.5 L620 151.2 L630 134.2 L640 116.8 L650 104.4 L660 88.7 L670 75.7 L680 69.4 L690 84.2 L700 107.3 L710 115.6 L720 122.5 L730 124.0 L740 112.6 L750 120.3 L760 114.1 L770 115.6 L780 119.9 L790 113.4 L800 123.9 L810 119.0 L820 129.5 L830 128.4 L840 134.5 L850 136.0 L860 125.8 L870 123.6 L880 120.3 L890 97.0 L900 93.2 L910 85.6 L920 85.9 L930 104.4 L940 128.8 L950 128.0 L960 145.0 L970 145.4 L980 136.2 L990 139.6 L1000 136.6 L1010 136.2 L1020 132.5 L1030 122.2 L1040 124.2 L1050 116.7 L1060 118.2 L1070 115.9 L1080 108.2 L1090 115.3 L1100 115.0 L1110 112.5 L1120 124.6 L1130 127.7 L1140 120.1 L1140 170 Z" fill="#3987e5" fill-opacity="0.18"/>
<polyline points="60,133.5 70,128.4 80,119.7 90,123.1 100,119.8 110,116.4 120,120.6 130,114.9 140,112.9 150,111.1 160,122.3 170,121.1 180,126.5 190,119.0 200,123.9 210,136.4 220,125.1 230,125.3 240,125.2 250,115.3 260,107.1 270,95.8 280,83.5 290,97.3 300,111.0 310,126.9 320,142.1 330,141.8 340,143.2 350,135.7 360,137.4 370,132.3 380,130.7 390,124.9 400,124.5 410,124.2 420,111.3 430,109.5 440,110.5 450,111.8 460,117.7 470,119.8 480,120.5 490,125.8 500,118.4 510,126.8 520,123.8 530,134.0 540,129.3 550,134.4 560,149.8 570,149.6 580,141.8 590,149.7 600,143.0 610,150.5 620,151.2 630,134.2 640,116.8 650,104.4 660,88.7 670,75.7 680,69.4 690,84.2 700,107.3 710,115.6 720,122.5 730,124.0 740,112.6 750,120.3 760,114.1 770,115.6 780,119.9 790,113.4 800,123.9 810,119.0 820,129.5 830,128.4 840,134.5 850,136.0 860,125.8 870,123.6 880,120.3 890,97.0 900,93.2 910,85.6 920,85.9 930,104.4 940,128.8 950,128.0 960,145.0 970,145.4 980,136.2 990,139.6 1000,136.6 1010,136.2 1020,132.5 1030,122.2 1040,124.2 1050,116.7 1060,118.2 1070,115.9 1080,108.2 1090,115.3 1100,115.0 1110,112.5 1120,124.6 1130,127.7 1140,120.1" fill="none" stroke="#3987e5" stroke-width="2.5" stroke-linejoin="round"/>
<path d="M60 170H1140" stroke="#6b7aa5" stroke-opacity="0.5"/>
<g><animateTransform attributeName="transform" type="translate" values="92.4 0;92.4 0;92.4 0;276.0 0;276.0 0;502.8 0;502.8 0;675.6 0;675.6 0;902.4 0;902.4 0;1107.6 0;1107.6 0;92.4 0" keyTimes="0.0000;0.0357;0.1429;0.2000;0.3071;0.3643;0.4714;0.5286;0.6357;0.6929;0.8000;0.8571;0.9643;1.0000" dur="14.0s" repeatCount="indefinite"/><path d="M0 36V184" stroke="#fbbf24" stroke-width="2"/><circle cx="0" cy="36" r="9" fill="#fbbf24"/><circle cx="0" cy="36" r="3.5" fill="#0a0f1f"/></g>
<rect x="52.0" y="216" width="38" height="38" rx="7" fill="#2f9e44" opacity="0.95"><animate attributeName="fill" calcMode="discrete" values="#2f9e44;#2f9e44;#3987e5;#3987e5;#2f9e44;#2f9e44;#3987e5;#2f9e44" keyTimes="0.0000;0.0357;0.2000;0.3643;0.5286;0.6929;0.8571;0.9643" dur="14.0s" begin="0s" repeatCount="indefinite"/></rect>
<rect x="98.0" y="216" width="38" height="38" rx="7" fill="#2f9e44" opacity="0.95"><animate attributeName="fill" calcMode="discrete" values="#2f9e44;#2f9e44;#2f9e44;#2f9e44;#d95926;#3987e5;#3987e5;#2f9e44" keyTimes="0.0000;0.0357;0.2000;0.3643;0.5286;0.6929;0.8571;0.9643" dur="14.0s" begin="0s" repeatCount="indefinite"/></rect>
<rect x="144.0" y="216" width="38" height="38" rx="7" fill="#2f9e44" opacity="0.95"><animate attributeName="fill" calcMode="discrete" values="#2f9e44;#2f9e44;#3987e5;#2f9e44;#3987e5;#2f9e44;#2f9e44;#2f9e44" keyTimes="0.0000;0.0357;0.2000;0.3643;0.5286;0.6929;0.8571;0.9643" dur="14.0s" begin="0s" repeatCount="indefinite"/></rect>
<rect x="190.0" y="216" width="38" height="38" rx="7" fill="#3987e5" opacity="0.95"><animate attributeName="fill" calcMode="discrete" values="#3987e5;#3987e5;#3987e5;#2f9e44;#3987e5;#3987e5;#2f9e44;#3987e5" keyTimes="0.0000;0.0357;0.2000;0.3643;0.5286;0.6929;0.8571;0.9643" dur="14.0s" begin="0s" repeatCount="indefinite"/></rect>
<rect x="236.0" y="216" width="38" height="38" rx="7" fill="#2f9e44" opacity="0.95"><animate attributeName="fill" calcMode="discrete" values="#2f9e44;#2f9e44;#2f9e44;#3987e5;#2f9e44;#3987e5;#3987e5;#2f9e44" keyTimes="0.0000;0.0357;0.2000;0.3643;0.5286;0.6929;0.8571;0.9643" dur="14.0s" begin="0s" repeatCount="indefinite"/></rect>
<rect x="282.0" y="216" width="38" height="38" rx="7" fill="#3987e5" opacity="0.95"><animate attributeName="fill" calcMode="discrete" values="#3987e5;#3987e5;#d95926;#3987e5;#3987e5;#d95926;#2f9e44;#3987e5" keyTimes="0.0000;0.0357;0.2000;0.3643;0.5286;0.6929;0.8571;0.9643" dur="14.0s" begin="0s" repeatCount="indefinite"/></rect>
<rect x="328.0" y="216" width="38" height="38" rx="7" fill="#3987e5" opacity="0.95"><animate attributeName="fill" calcMode="discrete" values="#3987e5;#3987e5;#d95926;#2f9e44;#2f9e44;#2f9e44;#2f9e44;#3987e5" keyTimes="0.0000;0.0357;0.2000;0.3643;0.5286;0.6929;0.8571;0.9643" dur="14.0s" begin="0s" repeatCount="indefinite"/></rect>
<rect x="374.0" y="216" width="38" height="38" rx="7" fill="#2f9e44" opacity="0.95"><animate attributeName="fill" calcMode="discrete" values="#2f9e44;#2f9e44;#3987e5;#3987e5;#3987e5;#2f9e44;#2f9e44;#2f9e44" keyTimes="0.0000;0.0357;0.2000;0.3643;0.5286;0.6929;0.8571;0.9643" dur="14.0s" begin="0s" repeatCount="indefinite"/></rect>
<rect x="420.0" y="216" width="38" height="38" rx="7" fill="#2f9e44" opacity="0.95"><animate attributeName="fill" calcMode="discrete" values="#2f9e44;#2f9e44;#3987e5;#2f9e44;#d95926;#2f9e44;#d95926;#2f9e44" keyTimes="0.0000;0.0357;0.2000;0.3643;0.5286;0.6929;0.8571;0.9643" dur="14.0s" begin="0s" repeatCount="indefinite"/></rect>
<rect x="466.0" y="216" width="38" height="38" rx="7" fill="#2f9e44" opacity="0.95"><animate attributeName="fill" calcMode="discrete" values="#2f9e44;#2f9e44;#3987e5;#2f9e44;#2f9e44;#2f9e44;#2f9e44;#2f9e44" keyTimes="0.0000;0.0357;0.2000;0.3643;0.5286;0.6929;0.8571;0.9643" dur="14.0s" begin="0s" repeatCount="indefinite"/></rect>
<rect x="512.0" y="216" width="38" height="38" rx="7" fill="#2f9e44" opacity="0.95"><animate attributeName="fill" calcMode="discrete" values="#2f9e44;#2f9e44;#2f9e44;#2f9e44;#d95926;#2f9e44;#2f9e44;#2f9e44" keyTimes="0.0000;0.0357;0.2000;0.3643;0.5286;0.6929;0.8571;0.9643" dur="14.0s" begin="0s" repeatCount="indefinite"/></rect>
<rect x="558.0" y="216" width="38" height="38" rx="7" fill="#2f9e44" opacity="0.95"><animate attributeName="fill" calcMode="discrete" values="#2f9e44;#2f9e44;#d95926;#2f9e44;#2f9e44;#2f9e44;#2f9e44;#2f9e44" keyTimes="0.0000;0.0357;0.2000;0.3643;0.5286;0.6929;0.8571;0.9643" dur="14.0s" begin="0s" repeatCount="indefinite"/></rect>
<rect x="604.0" y="216" width="38" height="38" rx="7" fill="#d95926" opacity="0.95"><animate attributeName="fill" calcMode="discrete" values="#d95926;#d95926;#2f9e44;#2f9e44;#3987e5;#2f9e44;#2f9e44;#d95926" keyTimes="0.0000;0.0357;0.2000;0.3643;0.5286;0.6929;0.8571;0.9643" dur="14.0s" begin="0s" repeatCount="indefinite"/></rect>
<rect x="650.0" y="216" width="38" height="38" rx="7" fill="#2f9e44" opacity="0.95"><animate attributeName="fill" calcMode="discrete" values="#2f9e44;#2f9e44;#2f9e44;#d95926;#2f9e44;#2f9e44;#d95926;#2f9e44" keyTimes="0.0000;0.0357;0.2000;0.3643;0.5286;0.6929;0.8571;0.9643" dur="14.0s" begin="0s" repeatCount="indefinite"/></rect>
<rect x="696.0" y="216" width="38" height="38" rx="7" fill="#2f9e44" opacity="0.95"><animate attributeName="fill" calcMode="discrete" values="#2f9e44;#2f9e44;#3987e5;#2f9e44;#3987e5;#2f9e44;#d95926;#2f9e44" keyTimes="0.0000;0.0357;0.2000;0.3643;0.5286;0.6929;0.8571;0.9643" dur="14.0s" begin="0s" repeatCount="indefinite"/></rect>
<rect x="742.0" y="216" width="38" height="38" rx="7" fill="#3987e5" opacity="0.95"><animate attributeName="fill" calcMode="discrete" values="#3987e5;#3987e5;#2f9e44;#d95926;#2f9e44;#2f9e44;#3987e5;#3987e5" keyTimes="0.0000;0.0357;0.2000;0.3643;0.5286;0.6929;0.8571;0.9643" dur="14.0s" begin="0s" repeatCount="indefinite"/></rect>
<rect x="788.0" y="216" width="38" height="38" rx="7" fill="#3987e5" opacity="0.95"><animate attributeName="fill" calcMode="discrete" values="#3987e5;#3987e5;#d95926;#2f9e44;#3987e5;#3987e5;#2f9e44;#3987e5" keyTimes="0.0000;0.0357;0.2000;0.3643;0.5286;0.6929;0.8571;0.9643" dur="14.0s" begin="0s" repeatCount="indefinite"/></rect>
<rect x="834.0" y="216" width="38" height="38" rx="7" fill="#2f9e44" opacity="0.95"><animate attributeName="fill" calcMode="discrete" values="#2f9e44;#2f9e44;#d95926;#2f9e44;#d95926;#2f9e44;#3987e5;#2f9e44" keyTimes="0.0000;0.0357;0.2000;0.3643;0.5286;0.6929;0.8571;0.9643" dur="14.0s" begin="0s" repeatCount="indefinite"/></rect>
<rect x="880.0" y="216" width="38" height="38" rx="7" fill="#d95926" opacity="0.95"><animate attributeName="fill" calcMode="discrete" values="#d95926;#d95926;#2f9e44;#2f9e44;#2f9e44;#d95926;#2f9e44;#d95926" keyTimes="0.0000;0.0357;0.2000;0.3643;0.5286;0.6929;0.8571;0.9643" dur="14.0s" begin="0s" repeatCount="indefinite"/></rect>
<rect x="926.0" y="216" width="38" height="38" rx="7" fill="#d95926" opacity="0.95"><animate attributeName="fill" calcMode="discrete" values="#d95926;#d95926;#3987e5;#d95926;#2f9e44;#2f9e44;#2f9e44;#d95926" keyTimes="0.0000;0.0357;0.2000;0.3643;0.5286;0.6929;0.8571;0.9643" dur="14.0s" begin="0s" repeatCount="indefinite"/></rect>
<rect x="972.0" y="216" width="38" height="38" rx="7" fill="#2f9e44" opacity="0.95"><animate attributeName="fill" calcMode="discrete" values="#2f9e44;#2f9e44;#3987e5;#3987e5;#d95926;#3987e5;#3987e5;#2f9e44" keyTimes="0.0000;0.0357;0.2000;0.3643;0.5286;0.6929;0.8571;0.9643" dur="14.0s" begin="0s" repeatCount="indefinite"/></rect>
<rect x="1018.0" y="216" width="38" height="38" rx="7" fill="#d95926" opacity="0.95"><animate attributeName="fill" calcMode="discrete" values="#d95926;#d95926;#2f9e44;#d95926;#d95926;#2f9e44;#2f9e44;#d95926" keyTimes="0.0000;0.0357;0.2000;0.3643;0.5286;0.6929;0.8571;0.9643" dur="14.0s" begin="0s" repeatCount="indefinite"/></rect>
<rect x="1064.0" y="216" width="38" height="38" rx="7" fill="#d95926" opacity="0.95"><animate attributeName="fill" calcMode="discrete" values="#d95926;#d95926;#3987e5;#3987e5;#2f9e44;#3987e5;#2f9e44;#d95926" keyTimes="0.0000;0.0357;0.2000;0.3643;0.5286;0.6929;0.8571;0.9643" dur="14.0s" begin="0s" repeatCount="indefinite"/></rect>
<rect x="1110.0" y="216" width="38" height="38" rx="7" fill="#2f9e44" opacity="0.95"><animate attributeName="fill" calcMode="discrete" values="#2f9e44;#2f9e44;#d95926;#2f9e44;#3987e5;#3987e5;#d95926;#2f9e44" keyTimes="0.0000;0.0357;0.2000;0.3643;0.5286;0.6929;0.8571;0.9643" dur="14.0s" begin="0s" repeatCount="indefinite"/></rect>
<rect x="52.0" y="262" width="38" height="38" rx="7" fill="#3987e5" opacity="0.95"><animate attributeName="fill" calcMode="discrete" values="#3987e5;#3987e5;#2f9e44;#3987e5;#3987e5;#3987e5;#2f9e44;#3987e5" keyTimes="0.0000;0.0357;0.2000;0.3643;0.5286;0.6929;0.8571;0.9643" dur="14.0s" begin="0s" repeatCount="indefinite"/></rect>
<rect x="98.0" y="262" width="38" height="38" rx="7" fill="#d95926" opacity="0.95"><animate attributeName="fill" calcMode="discrete" values="#d95926;#d95926;#2f9e44;#2f9e44;#2f9e44;#2f9e44;#2f9e44;#d95926" keyTimes="0.0000;0.0357;0.2000;0.3643;0.5286;0.6929;0.8571;0.9643" dur="14.0s" begin="0s" repeatCount="indefinite"/></rect>
<rect x="144.0" y="262" width="38" height="38" rx="7" fill="#3987e5" opacity="0.95"><animate attributeName="fill" calcMode="discrete" values="#3987e5;#3987e5;#d95926;#3987e5;#3987e5;#d95926;#2f9e44;#3987e5" keyTimes="0.0000;0.0357;0.2000;0.3643;0.5286;0.6929;0.8571;0.9643" dur="14.0s" begin="0s" repeatCount="indefinite"/></rect>
<rect x="190.0" y="262" width="38" height="38" rx="7" fill="#3987e5" opacity="0.95"><animate attributeName="fill" calcMode="discrete" values="#3987e5;#3987e5;#3987e5;#d95926;#2f9e44;#2f9e44;#2f9e44;#3987e5" keyTimes="0.0000;0.0357;0.2000;0.3643;0.5286;0.6929;0.8571;0.9643" dur="14.0s" begin="0s" repeatCount="indefinite"/></rect>
<rect x="236.0" y="262" width="38" height="38" rx="7" fill="#2f9e44" opacity="0.95"><animate attributeName="fill" calcMode="discrete" values="#2f9e44;#2f9e44;#d95926;#2f9e44;#2f9e44;#3987e5;#2f9e44;#2f9e44" keyTimes="0.0000;0.0357;0.2000;0.3643;0.5286;0.6929;0.8571;0.9643" dur="14.0s" begin="0s" repeatCount="indefinite"/></rect>
<rect x="282.0" y="262" width="38" height="38" rx="7" fill="#2f9e44" opacity="0.95"><animate attributeName="fill" calcMode="discrete" values="#2f9e44;#2f9e44;#3987e5;#d95926;#2f9e44;#2f9e44;#d95926;#2f9e44" keyTimes="0.0000;0.0357;0.2000;0.3643;0.5286;0.6929;0.8571;0.9643" dur="14.0s" begin="0s" repeatCount="indefinite"/></rect>
<rect x="328.0" y="262" width="38" height="38" rx="7" fill="#2f9e44" opacity="0.95"><animate attributeName="fill" calcMode="discrete" values="#2f9e44;#2f9e44;#2f9e44;#2f9e44;#2f9e44;#d95926;#2f9e44;#2f9e44" keyTimes="0.0000;0.0357;0.2000;0.3643;0.5286;0.6929;0.8571;0.9643" dur="14.0s" begin="0s" repeatCount="indefinite"/></rect>
<rect x="374.0" y="262" width="38" height="38" rx="7" fill="#3987e5" opacity="0.95"><animate attributeName="fill" calcMode="discrete" values="#3987e5;#3987e5;#2f9e44;#2f9e44;#2f9e44;#2f9e44;#3987e5;#3987e5" keyTimes="0.0000;0.0357;0.2000;0.3643;0.5286;0.6929;0.8571;0.9643" dur="14.0s" begin="0s" repeatCount="indefinite"/></rect>
<rect x="420.0" y="262" width="38" height="38" rx="7" fill="#2f9e44" opacity="0.95"><animate attributeName="fill" calcMode="discrete" values="#2f9e44;#2f9e44;#2f9e44;#2f9e44;#2f9e44;#2f9e44;#d95926;#2f9e44" keyTimes="0.0000;0.0357;0.2000;0.3643;0.5286;0.6929;0.8571;0.9643" dur="14.0s" begin="0s" repeatCount="indefinite"/></rect>
<rect x="466.0" y="262" width="38" height="38" rx="7" fill="#2f9e44" opacity="0.95"><animate attributeName="fill" calcMode="discrete" values="#2f9e44;#2f9e44;#2f9e44;#d95926;#3987e5;#d95926;#2f9e44;#2f9e44" keyTimes="0.0000;0.0357;0.2000;0.3643;0.5286;0.6929;0.8571;0.9643" dur="14.0s" begin="0s" repeatCount="indefinite"/></rect>
<rect x="512.0" y="262" width="38" height="38" rx="7" fill="#2f9e44" opacity="0.95"><animate attributeName="fill" calcMode="discrete" values="#2f9e44;#2f9e44;#d95926;#3987e5;#2f9e44;#3987e5;#2f9e44;#2f9e44" keyTimes="0.0000;0.0357;0.2000;0.3643;0.5286;0.6929;0.8571;0.9643" dur="14.0s" begin="0s" repeatCount="indefinite"/></rect>
<rect x="558.0" y="262" width="38" height="38" rx="7" fill="#3987e5" opacity="0.95"><animate attributeName="fill" calcMode="discrete" values="#3987e5;#3987e5;#d95926;#2f9e44;#3987e5;#3987e5;#2f9e44;#3987e5" keyTimes="0.0000;0.0357;0.2000;0.3643;0.5286;0.6929;0.8571;0.9643" dur="14.0s" begin="0s" repeatCount="indefinite"/></rect>
<rect x="604.0" y="262" width="38" height="38" rx="7" fill="#2f9e44" opacity="0.95"><animate attributeName="fill" calcMode="discrete" values="#2f9e44;#2f9e44;#2f9e44;#2f9e44;#2f9e44;#d95926;#2f9e44;#2f9e44" keyTimes="0.0000;0.0357;0.2000;0.3643;0.5286;0.6929;0.8571;0.9643" dur="14.0s" begin="0s" repeatCount="indefinite"/></rect>
<rect x="650.0" y="262" width="38" height="38" rx="7" fill="#3987e5" opacity="0.95"><animate attributeName="fill" calcMode="discrete" values="#3987e5;#3987e5;#3987e5;#2f9e44;#3987e5;#2f9e44;#2f9e44;#3987e5" keyTimes="0.0000;0.0357;0.2000;0.3643;0.5286;0.6929;0.8571;0.9643" dur="14.0s" begin="0s" repeatCount="indefinite"/></rect>
<rect x="696.0" y="262" width="38" height="38" rx="7" fill="#2f9e44" opacity="0.95"><animate attributeName="fill" calcMode="discrete" values="#2f9e44;#2f9e44;#2f9e44;#2f9e44;#d95926;#d95926;#2f9e44;#2f9e44" keyTimes="0.0000;0.0357;0.2000;0.3643;0.5286;0.6929;0.8571;0.9643" dur="14.0s" begin="0s" repeatCount="indefinite"/></rect>
<rect x="742.0" y="262" width="38" height="38" rx="7" fill="#2f9e44" opacity="0.95"><animate attributeName="fill" calcMode="discrete" values="#2f9e44;#2f9e44;#3987e5;#2f9e44;#2f9e44;#2f9e44;#2f9e44;#2f9e44" keyTimes="0.0000;0.0357;0.2000;0.3643;0.5286;0.6929;0.8571;0.9643" dur="14.0s" begin="0s" repeatCount="indefinite"/></rect>
<rect x="788.0" y="262" width="38" height="38" rx="7" fill="#3987e5" opacity="0.95"><animate attributeName="fill" calcMode="discrete" values="#3987e5;#3987e5;#2f9e44;#2f9e44;#2f9e44;#3987e5;#2f9e44;#3987e5" keyTimes="0.0000;0.0357;0.2000;0.3643;0.5286;0.6929;0.8571;0.9643" dur="14.0s" begin="0s" repeatCount="indefinite"/></rect>
<rect x="834.0" y="262" width="38" height="38" rx="7" fill="#2f9e44" opacity="0.95"><animate attributeName="fill" calcMode="discrete" values="#2f9e44;#2f9e44;#d95926;#2f9e44;#2f9e44;#d95926;#2f9e44;#2f9e44" keyTimes="0.0000;0.0357;0.2000;0.3643;0.5286;0.6929;0.8571;0.9643" dur="14.0s" begin="0s" repeatCount="indefinite"/></rect>
<rect x="880.0" y="262" width="38" height="38" rx="7" fill="#3987e5" opacity="0.95"><animate attributeName="fill" calcMode="discrete" values="#3987e5;#3987e5;#2f9e44;#d95926;#2f9e44;#2f9e44;#3987e5;#3987e5" keyTimes="0.0000;0.0357;0.2000;0.3643;0.5286;0.6929;0.8571;0.9643" dur="14.0s" begin="0s" repeatCount="indefinite"/></rect>
<rect x="926.0" y="262" width="38" height="38" rx="7" fill="#d95926" opacity="0.95"><animate attributeName="fill" calcMode="discrete" values="#d95926;#d95926;#3987e5;#d95926;#2f9e44;#2f9e44;#d95926;#d95926" keyTimes="0.0000;0.0357;0.2000;0.3643;0.5286;0.6929;0.8571;0.9643" dur="14.0s" begin="0s" repeatCount="indefinite"/></rect>
<rect x="972.0" y="262" width="38" height="38" rx="7" fill="#d95926" opacity="0.95"><animate attributeName="fill" calcMode="discrete" values="#d95926;#d95926;#3987e5;#2f9e44;#2f9e44;#3987e5;#2f9e44;#d95926" keyTimes="0.0000;0.0357;0.2000;0.3643;0.5286;0.6929;0.8571;0.9643" dur="14.0s" begin="0s" repeatCount="indefinite"/></rect>
<rect x="1018.0" y="262" width="38" height="38" rx="7" fill="#3987e5" opacity="0.95"><animate attributeName="fill" calcMode="discrete" values="#3987e5;#3987e5;#3987e5;#3987e5;#2f9e44;#d95926;#d95926;#3987e5" keyTimes="0.0000;0.0357;0.2000;0.3643;0.5286;0.6929;0.8571;0.9643" dur="14.0s" begin="0s" repeatCount="indefinite"/></rect>
<rect x="1064.0" y="262" width="38" height="38" rx="7" fill="#2f9e44" opacity="0.95"><animate attributeName="fill" calcMode="discrete" values="#2f9e44;#2f9e44;#3987e5;#2f9e44;#3987e5;#2f9e44;#3987e5;#2f9e44" keyTimes="0.0000;0.0357;0.2000;0.3643;0.5286;0.6929;0.8571;0.9643" dur="14.0s" begin="0s" repeatCount="indefinite"/></rect>
<rect x="1110.0" y="262" width="38" height="38" rx="7" fill="#3987e5" opacity="0.95"><animate attributeName="fill" calcMode="discrete" values="#3987e5;#3987e5;#2f9e44;#d95926;#d95926;#d95926;#2f9e44;#3987e5" keyTimes="0.0000;0.0357;0.2000;0.3643;0.5286;0.6929;0.8571;0.9643" dur="14.0s" begin="0s" repeatCount="indefinite"/></rect>
<rect x="52.0" y="308" width="38" height="38" rx="7" fill="#3987e5" opacity="0.95"><animate attributeName="fill" calcMode="discrete" values="#3987e5;#3987e5;#3987e5;#2f9e44;#2f9e44;#2f9e44;#2f9e44;#3987e5" keyTimes="0.0000;0.0357;0.2000;0.3643;0.5286;0.6929;0.8571;0.9643" dur="14.0s" begin="0s" repeatCount="indefinite"/></rect>
<rect x="98.0" y="308" width="38" height="38" rx="7" fill="#2f9e44" opacity="0.95"><animate attributeName="fill" calcMode="discrete" values="#2f9e44;#2f9e44;#2f9e44;#3987e5;#2f9e44;#2f9e44;#2f9e44;#2f9e44" keyTimes="0.0000;0.0357;0.2000;0.3643;0.5286;0.6929;0.8571;0.9643" dur="14.0s" begin="0s" repeatCount="indefinite"/></rect>
<rect x="144.0" y="308" width="38" height="38" rx="7" fill="#d95926" opacity="0.95"><animate attributeName="fill" calcMode="discrete" values="#d95926;#d95926;#d95926;#2f9e44;#3987e5;#2f9e44;#2f9e44;#d95926" keyTimes="0.0000;0.0357;0.2000;0.3643;0.5286;0.6929;0.8571;0.9643" dur="14.0s" begin="0s" repeatCount="indefinite"/></rect>
<rect x="190.0" y="308" width="38" height="38" rx="7" fill="#3987e5" opacity="0.95"><animate attributeName="fill" calcMode="discrete" values="#3987e5;#3987e5;#3987e5;#2f9e44;#3987e5;#3987e5;#2f9e44;#3987e5" keyTimes="0.0000;0.0357;0.2000;0.3643;0.5286;0.6929;0.8571;0.9643" dur="14.0s" begin="0s" repeatCount="indefinite"/></rect>
<rect x="236.0" y="308" width="38" height="38" rx="7" fill="#d95926" opacity="0.95"><animate attributeName="fill" calcMode="discrete" values="#d95926;#d95926;#2f9e44;#3987e5;#d95926;#2f9e44;#3987e5;#d95926" keyTimes="0.0000;0.0357;0.2000;0.3643;0.5286;0.6929;0.8571;0.9643" dur="14.0s" begin="0s" repeatCount="indefinite"/></rect>
<rect x="282.0" y="308" width="38" height="38" rx="7" fill="#3987e5" opacity="0.95"><animate attributeName="fill" calcMode="discrete" values="#3987e5;#3987e5;#2f9e44;#2f9e44;#2f9e44;#3987e5;#2f9e44;#3987e5" keyTimes="0.0000;0.0357;0.2000;0.3643;0.5286;0.6929;0.8571;0.9643" dur="14.0s" begin="0s" repeatCount="indefinite"/></rect>
<rect x="328.0" y="308" width="38" height="38" rx="7" fill="#2f9e44" opacity="0.95"><animate attributeName="fill" calcMode="discrete" values="#2f9e44;#2f9e44;#2f9e44;#2f9e44;#3987e5;#3987e5;#3987e5;#2f9e44" keyTimes="0.0000;0.0357;0.2000;0.3643;0.5286;0.6929;0.8571;0.9643" dur="14.0s" begin="0s" repeatCount="indefinite"/></rect>
<rect x="374.0" y="308" width="38" height="38" rx="7" fill="#3987e5" opacity="0.95"><animate attributeName="fill" calcMode="discrete" values="#3987e5;#3987e5;#2f9e44;#2f9e44;#2f9e44;#3987e5;#3987e5;#3987e5" keyTimes="0.0000;0.0357;0.2000;0.3643;0.5286;0.6929;0.8571;0.9643" dur="14.0s" begin="0s" repeatCount="indefinite"/></rect>
<rect x="420.0" y="308" width="38" height="38" rx="7" fill="#3987e5" opacity="0.95"><animate attributeName="fill" calcMode="discrete" values="#3987e5;#3987e5;#2f9e44;#2f9e44;#2f9e44;#3987e5;#3987e5;#3987e5" keyTimes="0.0000;0.0357;0.2000;0.3643;0.5286;0.6929;0.8571;0.9643" dur="14.0s" begin="0s" repeatCount="indefinite"/></rect>
<rect x="466.0" y="308" width="38" height="38" rx="7" fill="#2f9e44" opacity="0.95"><animate attributeName="fill" calcMode="discrete" values="#2f9e44;#2f9e44;#d95926;#2f9e44;#d95926;#d95926;#2f9e44;#2f9e44" keyTimes="0.0000;0.0357;0.2000;0.3643;0.5286;0.6929;0.8571;0.9643" dur="14.0s" begin="0s" repeatCount="indefinite"/></rect>
<rect x="512.0" y="308" width="38" height="38" rx="7" fill="#d95926" opacity="0.95"><animate attributeName="fill" calcMode="discrete" values="#d95926;#d95926;#2f9e44;#3987e5;#2f9e44;#2f9e44;#3987e5;#d95926" keyTimes="0.0000;0.0357;0.2000;0.3643;0.5286;0.6929;0.8571;0.9643" dur="14.0s" begin="0s" repeatCount="indefinite"/></rect>
<rect x="558.0" y="308" width="38" height="38" rx="7" fill="#d95926" opacity="0.95"><animate attributeName="fill" calcMode="discrete" values="#d95926;#d95926;#2f9e44;#d95926;#3987e5;#3987e5;#2f9e44;#d95926" keyTimes="0.0000;0.0357;0.2000;0.3643;0.5286;0.6929;0.8571;0.9643" dur="14.0s" begin="0s" repeatCount="indefinite"/></rect>
<rect x="604.0" y="308" width="38" height="38" rx="7" fill="#3987e5" opacity="0.95"><animate attributeName="fill" calcMode="discrete" values="#3987e5;#3987e5;#2f9e44;#2f9e44;#2f9e44;#2f9e44;#2f9e44;#3987e5" keyTimes="0.0000;0.0357;0.2000;0.3643;0.5286;0.6929;0.8571;0.9643" dur="14.0s" begin="0s" repeatCount="indefinite"/></rect>
<rect x="650.0" y="308" width="38" height="38" rx="7" fill="#d95926" opacity="0.95"><animate attributeName="fill" calcMode="discrete" values="#d95926;#d95926;#2f9e44;#2f9e44;#2f9e44;#2f9e44;#3987e5;#d95926" keyTimes="0.0000;0.0357;0.2000;0.3643;0.5286;0.6929;0.8571;0.9643" dur="14.0s" begin="0s" repeatCount="indefinite"/></rect>
<rect x="696.0" y="308" width="38" height="38" rx="7" fill="#2f9e44" opacity="0.95"><animate attributeName="fill" calcMode="discrete" values="#2f9e44;#2f9e44;#2f9e44;#2f9e44;#2f9e44;#d95926;#2f9e44;#2f9e44" keyTimes="0.0000;0.0357;0.2000;0.3643;0.5286;0.6929;0.8571;0.9643" dur="14.0s" begin="0s" repeatCount="indefinite"/></rect>
<rect x="742.0" y="308" width="38" height="38" rx="7" fill="#2f9e44" opacity="0.95"><animate attributeName="fill" calcMode="discrete" values="#2f9e44;#2f9e44;#2f9e44;#2f9e44;#2f9e44;#d95926;#2f9e44;#2f9e44" keyTimes="0.0000;0.0357;0.2000;0.3643;0.5286;0.6929;0.8571;0.9643" dur="14.0s" begin="0s" repeatCount="indefinite"/></rect>
<rect x="788.0" y="308" width="38" height="38" rx="7" fill="#3987e5" opacity="0.95"><animate attributeName="fill" calcMode="discrete" values="#3987e5;#3987e5;#d95926;#d95926;#3987e5;#d95926;#2f9e44;#3987e5" keyTimes="0.0000;0.0357;0.2000;0.3643;0.5286;0.6929;0.8571;0.9643" dur="14.0s" begin="0s" repeatCount="indefinite"/></rect>
<rect x="834.0" y="308" width="38" height="38" rx="7" fill="#2f9e44" opacity="0.95"><animate attributeName="fill" calcMode="discrete" values="#2f9e44;#2f9e44;#3987e5;#2f9e44;#2f9e44;#d95926;#2f9e44;#2f9e44" keyTimes="0.0000;0.0357;0.2000;0.3643;0.5286;0.6929;0.8571;0.9643" dur="14.0s" begin="0s" repeatCount="indefinite"/></rect>
<rect x="880.0" y="308" width="38" height="38" rx="7" fill="#2f9e44" opacity="0.95"><animate attributeName="fill" calcMode="discrete" values="#2f9e44;#2f9e44;#2f9e44;#d95926;#2f9e44;#2f9e44;#2f9e44;#2f9e44" keyTimes="0.0000;0.0357;0.2000;0.3643;0.5286;0.6929;0.8571;0.9643" dur="14.0s" begin="0s" repeatCount="indefinite"/></rect>
<rect x="926.0" y="308" width="38" height="38" rx="7" fill="#2f9e44" opacity="0.95"><animate attributeName="fill" calcMode="discrete" values="#2f9e44;#2f9e44;#2f9e44;#3987e5;#2f9e44;#2f9e44;#3987e5;#2f9e44" keyTimes="0.0000;0.0357;0.2000;0.3643;0.5286;0.6929;0.8571;0.9643" dur="14.0s" begin="0s" repeatCount="indefinite"/></rect>
<rect x="972.0" y="308" width="38" height="38" rx="7" fill="#d95926" opacity="0.95"><animate attributeName="fill" calcMode="discrete" values="#d95926;#d95926;#3987e5;#3987e5;#d95926;#3987e5;#3987e5;#d95926" keyTimes="0.0000;0.0357;0.2000;0.3643;0.5286;0.6929;0.8571;0.9643" dur="14.0s" begin="0s" repeatCount="indefinite"/></rect>
<rect x="1018.0" y="308" width="38" height="38" rx="7" fill="#2f9e44" opacity="0.95"><animate attributeName="fill" calcMode="discrete" values="#2f9e44;#2f9e44;#2f9e44;#2f9e44;#2f9e44;#2f9e44;#2f9e44;#2f9e44" keyTimes="0.0000;0.0357;0.2000;0.3643;0.5286;0.6929;0.8571;0.9643" dur="14.0s" begin="0s" repeatCount="indefinite"/></rect>
<rect x="1064.0" y="308" width="38" height="38" rx="7" fill="#2f9e44" opacity="0.95"><animate attributeName="fill" calcMode="discrete" values="#2f9e44;#2f9e44;#2f9e44;#3987e5;#2f9e44;#2f9e44;#3987e5;#2f9e44" keyTimes="0.0000;0.0357;0.2000;0.3643;0.5286;0.6929;0.8571;0.9643" dur="14.0s" begin="0s" repeatCount="indefinite"/></rect>
<rect x="1110.0" y="308" width="38" height="38" rx="7" fill="#2f9e44" opacity="0.95"><animate attributeName="fill" calcMode="discrete" values="#2f9e44;#2f9e44;#3987e5;#d95926;#3987e5;#d95926;#2f9e44;#2f9e44" keyTimes="0.0000;0.0357;0.2000;0.3643;0.5286;0.6929;0.8571;0.9643" dur="14.0s" begin="0s" repeatCount="indefinite"/></rect>
<g transform="translate(60 14)"><rect width="104" height="26" rx="13" fill="#fbbf24" fill-opacity="0.15" stroke="#fbbf24"/><circle cx="18" cy="13" r="5" fill="#fbbf24"><animate attributeName="opacity" values="1;0.25;1" dur="1.4s" repeatCount="indefinite"/></circle><text x="32" y="18" font-size="13" font-weight="700" style="fill:#fbbf24">REPLAY</text></g></g></svg>